<svg width="25" height="26" viewBox="0 0 25 26" xmlns="http://www.w3.org/2000/svg">
<path d="M6.25315 5.83863C6.23456 5.42241 6.29939 5.00668 6.44383 4.61588C6.58826 4.22508 6.80939 3.8671 7.09419 3.56301C7.379 3.25892 7.72174 3.01485 8.10225 2.84516C8.48277 2.67547 8.89337 2.58358 9.30992 2.5749C9.72646 2.56622 10.1405 2.64092 10.5278 2.7946C10.915 2.94829 11.2677 3.17787 11.5649 3.46983C11.8621 3.76179 12.098 4.11023 12.2586 4.49468C12.4192 4.87912 12.5013 5.29179 12.5 5.70843V19.2501M6.25315 5.83863C5.64086 5.99607 5.07242 6.29077 4.59089 6.70042C4.10936 7.11007 3.72736 7.62392 3.47382 8.20306C3.22028 8.7822 3.10186 9.41144 3.12751 10.0431C3.15317 10.6748 3.32223 11.2924 3.6219 11.8491M6.25315 5.83863C6.27375 6.34252 6.41599 6.83394 6.66773 7.27093M3.6219 11.8491C3.09501 12.2771 2.68068 12.8274 2.41496 13.4521C2.14925 14.0768 2.04019 14.757 2.09728 15.4334C2.15437 16.1099 2.37588 16.7621 2.74253 17.3334C3.10919 17.9048 3.60988 18.3779 4.20107 18.7116M3.6219 11.8491C3.81246 11.6938 4.01638 11.5569 4.23128 11.4376M4.20107 18.7116C4.12806 19.2764 4.17163 19.8502 4.32908 20.3975C4.48652 20.9448 4.7545 21.4541 5.11647 21.8938C5.47844 22.3335 5.9267 22.6943 6.43359 22.954C6.94047 23.2137 7.49521 23.3667 8.06354 23.4036C8.63188 23.4404 9.20174 23.3604 9.73793 23.1684C10.2741 22.9765 10.7653 22.6766 11.181 22.2873C11.5968 21.8981 11.9283 21.4278 12.1552 20.9054C12.3821 20.383 12.4994 19.8196 12.5 19.2501M4.20107 18.7116C4.82635 19.0642 5.53214 19.2504 6.25003 19.2501M12.5 19.2501H18.75C19.3026 19.2501 19.8325 19.4696 20.2232 19.8603C20.6139 20.251 20.8334 20.7809 20.8334 21.3334V22.3751M9.37503 14.0418C10.2496 13.7341 11.0132 13.174 11.5695 12.4324C12.1257 11.6907 12.4496 10.8008 12.5 9.87509M12.5 14.0418H16.6667M12.5 8.83343H20.8334M16.6667 8.83343V5.70843C16.6667 5.15589 16.8862 4.62599 17.2769 4.23529C17.6676 3.84459 18.1975 3.62509 18.75 3.62509M17.1875 14.0418C17.1875 14.3294 16.9543 14.5626 16.6667 14.5626C16.379 14.5626 16.1459 14.3294 16.1459 14.0418C16.1459 13.7541 16.379 13.5209 16.6667 13.5209C16.9543 13.5209 17.1875 13.7541 17.1875 14.0418ZM19.2709 3.62509C19.2709 3.91274 19.0377 4.14593 18.75 4.14593C18.4624 4.14593 18.2292 3.91274 18.2292 3.62509C18.2292 3.33744 18.4624 3.10426 18.75 3.10426C19.0377 3.10426 19.2709 3.33744 19.2709 3.62509ZM21.3542 22.3751C21.3542 22.6627 21.121 22.8959 20.8334 22.8959C20.5457 22.8959 20.3125 22.6627 20.3125 22.3751C20.3125 22.0874 20.5457 21.8543 20.8334 21.8543C21.121 21.8543 21.3542 22.0874 21.3542 22.3751ZM21.3542 8.83343C21.3542 9.12107 21.121 9.35426 20.8334 9.35426C20.5457 9.35426 20.3125 9.12107 20.3125 8.83343C20.3125 8.54578 20.5457 8.31259 20.8334 8.31259C21.121 8.31259 21.3542 8.54578 21.3542 8.83343Z" stroke-width="2" stroke-linecap="round" stroke-linejoin="round"/>
</svg>
