<svg width="25" height="26" viewBox="0 0 25 26" xmlns="http://www.w3.org/2000/svg">
<path d="M15.625 22.3751V14.0418C15.625 13.7655 15.5153 13.5006 15.3199 13.3052C15.1246 13.1099 14.8596 13.0001 14.5833 13.0001H10.4167C10.1404 13.0001 9.87545 13.1099 9.6801 13.3052C9.48475 13.5006 9.375 13.7655 9.375 14.0418V22.3751M3.125 10.9168C3.12493 10.6137 3.19097 10.3143 3.31853 10.0394C3.44609 9.76449 3.63208 9.52073 3.86354 9.32511L11.1552 3.07615C11.5312 2.75835 12.0077 2.58398 12.5 2.58398C12.9923 2.58398 13.4688 2.75835 13.8448 3.07615L21.1365 9.32511C21.3679 9.52073 21.5539 9.76449 21.6815 10.0394C21.809 10.3143 21.8751 10.6137 21.875 10.9168V20.2918C21.875 20.8443 21.6555 21.3742 21.2648 21.7649C20.8741 22.1556 20.3442 22.3751 19.7917 22.3751H5.20833C4.6558 22.3751 4.12589 22.1556 3.73519 21.7649C3.34449 21.3742 3.125 20.8443 3.125 20.2918V10.9168Z"  stroke-width="2" stroke-linecap="round" stroke-linejoin="round"/>
</svg>
