<svg width="21" height="22" viewBox="0 0 21 22" fill="none" xmlns="http://www.w3.org/2000/svg">
<path d="M13.625 4.50429C13.3017 4.50429 12.9829 4.42906 12.6938 4.28456L8.30625 2.09081C8.01709 1.94632 7.69826 1.87109 7.375 1.87109M13.625 4.50429C13.9483 4.50429 14.2671 4.42906 14.5563 4.28456L18.3677 2.37831C18.5266 2.2989 18.7032 2.26145 18.8807 2.26953C19.0582 2.27761 19.2307 2.33096 19.3817 2.42449C19.5328 2.51803 19.6574 2.64864 19.7437 2.80392C19.8301 2.9592 19.8753 3.13398 19.875 3.31165V16.6075C19.8749 16.8009 19.821 16.9904 19.7192 17.1549C19.6175 17.3194 19.472 17.4523 19.299 17.5387L14.5563 19.9106C14.2671 20.0551 13.9483 20.1303 13.625 20.1303M13.625 4.50429V20.1303M13.625 20.1303C13.3017 20.1303 12.9829 20.0551 12.6938 19.9106L8.30625 17.7169C8.01709 17.5724 7.69826 17.4971 7.375 17.4971C7.05174 17.4971 6.73292 17.5724 6.44375 17.7169L2.63229 19.6231C2.47329 19.7026 2.29659 19.74 2.11902 19.7319C1.94145 19.7237 1.76891 19.6703 1.61783 19.5767C1.46675 19.483 1.34215 19.3522 1.25589 19.1968C1.16962 19.0414 1.12456 18.8665 1.125 18.6887V5.39394C1.12511 5.20054 1.17905 5.01099 1.28079 4.84652C1.38253 4.68204 1.52804 4.54914 1.70104 4.46269L6.44375 2.09081C6.73292 1.94632 7.05174 1.87109 7.375 1.87109M7.375 1.87109V17.496" stroke="white" stroke-width="2" stroke-linecap="round" stroke-linejoin="round"/>
</svg>
