<svg width="25" height="26" viewBox="0 0 25 26" xmlns="http://www.w3.org/2000/svg">
<path d="M18.75 21.3333C18.75 19.6756 18.0916 18.0859 16.9195 16.9138C15.7474 15.7417 14.1576 15.0833 12.5 15.0833M12.5 15.0833C10.8424 15.0833 9.25273 15.7417 8.08062 16.9138C6.90852 18.0859 6.25004 19.6756 6.25004 21.3333M12.5 15.0833C14.8012 15.0833 16.6667 13.2178 16.6667 10.9166C16.6667 8.6154 14.8012 6.74992 12.5 6.74992C10.1989 6.74992 8.33337 8.6154 8.33337 10.9166C8.33337 13.2178 10.1989 15.0833 12.5 15.0833ZM22.9167 12.9999C22.9167 18.7529 18.253 23.4166 12.5 23.4166C6.74707 23.4166 2.08337 18.7529 2.08337 12.9999C2.08337 7.24695 6.74707 2.58325 12.5 2.58325C18.253 2.58325 22.9167 7.24695 22.9167 12.9999Z" stroke-width="2" stroke-linecap="round" stroke-linejoin="round"/>
</svg>
