<svg width="25" height="26" viewBox="0 0 25 26" xmlns="http://www.w3.org/2000/svg">
<path d="M12.7292 2.58325H12.2708C11.7183 2.58325 11.1884 2.80275 10.7977 3.19345C10.407 3.58415 10.1875 4.11405 10.1875 4.66659V4.85409C10.1871 5.21942 10.0907 5.57824 9.90785 5.89454C9.72502 6.21084 9.46223 6.4735 9.14583 6.65617L8.69792 6.91658C8.38121 7.09944 8.02195 7.1957 7.65625 7.1957C7.29055 7.1957 6.93129 7.09944 6.61459 6.91658L6.45833 6.83325C5.98028 6.55748 5.41233 6.48267 4.87917 6.62524C4.34601 6.76781 3.8912 7.1161 3.61459 7.59367L3.38542 7.9895C3.10965 8.46756 3.03484 9.03551 3.17741 9.56867C3.31997 10.1018 3.66827 10.5566 4.14584 10.8333L4.30209 10.9374C4.61696 11.1192 4.87877 11.3802 5.06151 11.6945C5.24425 12.0088 5.34156 12.3655 5.34375 12.7291V13.2603C5.34521 13.6274 5.24964 13.9884 5.06671 14.3067C4.88379 14.625 4.62001 14.8893 4.30209 15.0728L4.14584 15.1666C3.66827 15.4432 3.31997 15.898 3.17741 16.4312C3.03484 16.9643 3.10965 17.5323 3.38542 18.0103L3.61459 18.4062C3.8912 18.8837 4.34601 19.232 4.87917 19.3746C5.41233 19.5172 5.98028 19.4424 6.45833 19.1666L6.61459 19.0833C6.93129 18.9004 7.29055 18.8041 7.65625 18.8041C8.02195 18.8041 8.38121 18.9004 8.69792 19.0833L9.14583 19.3437C9.46223 19.5263 9.72502 19.789 9.90785 20.1053C10.0907 20.4216 10.1871 20.7804 10.1875 21.1458V21.3333C10.1875 21.8858 10.407 22.4157 10.7977 22.8064C11.1884 23.1971 11.7183 23.4166 12.2708 23.4166H12.7292C13.2817 23.4166 13.8116 23.1971 14.2023 22.8064C14.593 22.4157 14.8125 21.8858 14.8125 21.3333V21.1458C14.8129 20.7804 14.9093 20.4216 15.0921 20.1053C15.275 19.789 15.5378 19.5263 15.8542 19.3437L16.3021 19.0833C16.6188 18.9004 16.978 18.8041 17.3438 18.8041C17.7095 18.8041 18.0687 18.9004 18.3854 19.0833L18.5417 19.1666C19.0197 19.4424 19.5877 19.5172 20.1208 19.3746C20.654 19.232 21.1088 18.8837 21.3854 18.4062L21.6146 17.9999C21.8904 17.5219 21.9652 16.9539 21.8226 16.4208C21.68 15.8876 21.3317 15.4328 20.8542 15.1562L20.6979 15.0728C20.38 14.8893 20.1162 14.625 19.9333 14.3067C19.7504 13.9884 19.6548 13.6274 19.6563 13.2603V12.7395C19.6548 12.3724 19.7504 12.0114 19.9333 11.6931C20.1162 11.3749 20.38 11.1106 20.6979 10.927L20.8542 10.8333C21.3317 10.5566 21.68 10.1018 21.8226 9.56867C21.9652 9.03551 21.8904 8.46756 21.6146 7.9895L21.3854 7.59367C21.1088 7.1161 20.654 6.76781 20.1208 6.62524C19.5877 6.48267 19.0197 6.55748 18.5417 6.83325L18.3854 6.91658C18.0687 7.09944 17.7095 7.1957 17.3438 7.1957C16.978 7.1957 16.6188 7.09944 16.3021 6.91658L15.8542 6.65617C15.5378 6.4735 15.275 6.21084 15.0921 5.89454C14.9093 5.57824 14.8129 5.21942 14.8125 4.85409V4.66659C14.8125 4.11405 14.593 3.58415 14.2023 3.19345C13.8116 2.80275 13.2817 2.58325 12.7292 2.58325Z" stroke-width="2" stroke-linecap="round" stroke-linejoin="round"/>
<path d="M12.5 16.1249C14.2259 16.1249 15.625 14.7258 15.625 12.9999C15.625 11.274 14.2259 9.87492 12.5 9.87492C10.7741 9.87492 9.375 11.274 9.375 12.9999C9.375 14.7258 10.7741 16.1249 12.5 16.1249Z" stroke-width="2" stroke-linecap="round" stroke-linejoin="round"/>
</svg>
